<?xml version="1.0" standalone="no"?>
<!DOCTYPE svg PUBLIC "-//W3C//DTD SVG 20010904//EN"
 "http://www.w3.org/TR/2001/REC-SVG-20010904/DTD/svg10.dtd">
<svg version="1.0" xmlns="http://www.w3.org/2000/svg"
 width="765.000000pt" height="765.000000pt" viewBox="0 0 765.000000 765.000000"
 preserveAspectRatio="xMidYMid meet">
<metadata>
Created by potrace 1.14, written by Peter Selinger 2001-2017
</metadata>
<g transform="translate(0.000000,765.000000) scale(0.100000,-0.100000)"
fill="#000000" stroke="none">
<path d="M2146 5848 c-25 -22 -28 -37 -76 -404 -54 -414 -85 -634 -124 -874
-14 -85 -43 -303 -66 -485 -44 -353 -96 -689 -111 -717 -5 -10 -21 -18 -34
-18 -13 0 -27 -4 -30 -10 -3 -6 4 -10 17 -10 22 -1 22 -1 5 -15 -11 -7 -25
-11 -33 -8 -8 3 -14 0 -14 -6 0 -6 -9 -11 -21 -11 -12 0 -23 -8 -26 -20 -4
-15 -14 -20 -39 -20 -19 0 -34 -4 -34 -8 0 -14 -48 -32 -85 -32 -28 0 -35 -4
-35 -20 0 -17 -7 -20 -42 -22 -24 0 -52 0 -63 1 -11 1 -46 -3 -77 -10 -46 -9
-58 -16 -58 -30 0 -22 -4 -23 -31 -9 -15 8 -23 7 -35 -5 -12 -11 -12 -15 -2
-15 7 -1 2 -7 -12 -15 -24 -14 -23 -14 28 -15 62 0 67 -12 12 -30 -22 -7 -40
-17 -40 -22 0 -4 -16 -8 -35 -8 -22 0 -44 -8 -57 -20 -12 -11 -32 -20 -45 -20
-13 0 -23 -4 -23 -10 0 -5 -11 -10 -25 -10 -14 0 -25 -4 -25 -10 0 -5 -18 -13
-40 -16 -22 -4 -43 -10 -45 -14 -3 -5 -23 -6 -44 -3 -40 6 -124 -19 -149 -44
-7 -7 -27 -13 -43 -13 -16 0 -29 -4 -29 -8 0 -9 -55 -35 -97 -47 -13 -4 -23
-11 -23 -16 0 -5 -16 -9 -35 -9 -19 0 -35 -4 -35 -10 0 -5 -9 -10 -20 -10 -11
0 -34 -9 -52 -20 -18 -11 -43 -20 -55 -20 -12 0 -25 -4 -28 -10 -3 -5 -13 -10
-22 -10 -19 0 -147 -60 -151 -72 -2 -4 -12 -8 -23 -8 -18 0 -19 -15 -19 -563
l0 -564 97 -6 c54 -4 155 -7 226 -7 l127 0 0 -325 0 -325 -225 0 -225 0 0
-410 0 -410 1175 0 1175 0 0 80 0 80 269 0 c148 0 276 -3 285 -6 13 -5 16 -22
16 -80 l0 -74 294 0 295 0 6 88 c3 48 8 221 11 385 l5 298 284 -3 c157 -2 285
0 285 4 0 4 -129 9 -287 10 l-288 3 -3 628 c-2 591 -1 628 15 635 10 3 142 7
293 7 l275 0 5 -60 c4 -43 8 -55 14 -42 5 10 6 33 3 52 -3 20 -1 37 6 43 20
16 2315 30 2340 15 5 -3 132 -5 282 -4 151 1 290 -1 310 -5 l35 -6 0 -614 0
-615 -307 1 c-170 0 -442 0 -605 0 l-298 0 0 -305 0 -305 -307 2 -308 3 -3
295 -2 295 -266 -3 c-196 -3 -269 0 -280 8 -12 10 -14 63 -14 316 l0 304 -296
0 c-266 0 -296 -2 -290 -16 3 -9 6 -153 6 -320 l0 -305 285 1 c156 1 289 -1
295 -5 16 -10 14 -585 -2 -586 -7 -1 -17 -2 -23 -4 -5 -1 -139 -3 -297 -3
l-288 -2 0 -95 0 -95 895 0 894 0 4 78 3 77 2 -77 2 -78 625 0 625 0 0 140 c0
159 -3 154 96 148 l49 -3 3 -142 3 -143 175 0 175 0 -3 147 -3 147 -172 -3
-172 -3 -3 164 -3 163 -50 3 c-104 5 -96 -9 -93 170 l3 157 231 3 232 2 3
-154 c3 -107 8 -159 17 -168 10 -10 12 128 12 705 l0 717 -38 0 c-33 0 -39 4
-55 40 -14 31 -24 40 -43 40 -13 0 -24 4 -24 10 0 5 -18 19 -40 30 -22 11 -40
25 -40 30 0 6 -11 10 -24 10 -14 0 -27 4 -31 9 -3 5 -19 12 -36 16 -17 4 -42
13 -57 21 -15 8 -35 14 -44 14 -10 0 -18 5 -18 10 0 6 -11 10 -24 10 -14 0
-27 4 -31 10 -3 5 -31 17 -63 26 -31 10 -64 24 -73 31 -8 7 -20 13 -25 13 -6
0 -45 17 -86 39 -42 21 -87 41 -100 44 -13 3 -66 18 -118 32 -147 41 -161 44
-235 49 -39 3 -81 8 -95 10 -14 3 -84 10 -157 17 -131 11 -132 12 -137 38 -21
100 -121 915 -176 1436 -22 204 -51 458 -66 565 -14 107 -30 236 -35 285 -6
50 -13 106 -17 125 l-7 35 -215 5 -215 5 -12 135 c-7 74 -22 251 -34 394 -16
182 -27 262 -37 272 -11 12 -112 14 -600 14 -323 0 -605 -5 -626 -10 -31 -7
-58 -28 -125 -98 -47 -49 -177 -179 -288 -287 -224 -219 -210 -212 -260 -132
-13 21 -76 140 -140 265 -63 125 -122 235 -131 245 -14 16 -49 17 -458 17
l-443 0 -25 -22z m844 -60 c0 -12 -37 -525 -75 -1033 -8 -115 -24 -338 -35
-495 -10 -157 -45 -631 -75 -1055 -31 -423 -58 -833 -59 -910 -2 -77 -4 -148
-5 -157 -1 -17 -32 -18 -506 -18 -397 0 -505 3 -505 13 0 6 32 262 70 567 39
305 86 679 105 830 133 1069 285 2252 290 2260 10 16 795 13 795 -2z m2190 10
c1 -26 34 -412 45 -523 8 -82 15 -176 15 -207 0 -94 0 -94 236 -97 109 -1 200
-4 202 -6 2 -2 19 -142 37 -312 19 -169 41 -366 49 -438 9 -71 32 -278 51
-460 20 -181 51 -469 70 -640 19 -170 44 -398 55 -505 11 -107 27 -251 35
-320 8 -69 15 -136 15 -148 l0 -22 -410 0 c-384 0 -410 1 -411 18 0 9 -2 35
-4 57 -3 22 -16 225 -30 450 -34 559 -45 716 -50 741 -3 12 -15 24 -28 28 -12
3 -140 5 -282 5 -143 0 -276 0 -296 1 -20 0 -42 -6 -48 -14 -10 -11 -10 -94
-2 -363 6 -191 13 -477 17 -636 l7 -287 -407 0 -407 0 6 143 c5 126 13 498 30
1432 3 160 10 472 15 695 6 223 10 444 10 492 l0 86 168 4 c92 1 173 7 180 11
9 6 12 99 12 406 0 219 3 401 7 404 6 6 1113 10 1113 5z m-3462 -3795 c4 -66
20 -69 24 -5 l3 47 330 5 c470 8 822 6 831 -3 5 -4 10 -139 12 -300 2 -161 8
-300 13 -309 9 -17 33 -18 294 -18 l285 0 0 -294 c0 -162 -3 -301 -6 -310 -5
-14 -68 -16 -585 -16 -318 0 -580 1 -581 3 -1 1 -5 139 -8 307 l-5 305 -289 3
c-205 2 -293 -1 -302 -9 -11 -9 -14 -69 -14 -309 l0 -297 23 -12 c16 -9 97
-11 305 -9 227 2 283 0 287 -10 3 -8 5 -146 5 -308 0 -256 -2 -295 -15 -301
-9 -3 -280 -1 -603 3 l-587 9 -3 317 -2 318 -306 0 -305 0 1 328 c1 180 4 461
7 624 l6 298 591 -3 591 -2 3 -52z m5909 -70 c-3 -10 -5 -4 -5 12 0 17 2 24 5
18 2 -7 2 -21 0 -30z m-7184 -380 c-7 -2 -21 -2 -30 0 -10 3 -4 5 12 5 17 0
24 -2 18 -5z m6862 -513 c44 -12 94 -26 110 -30 19 -4 -17 -9 -100 -12 -71 -3
-133 -2 -138 2 -4 3 -4 21 -1 39 8 37 1 37 129 1z"/>
<path d="M4419 5027 l-34 -23 3 -215 c3 -259 20 -692 28 -712 12 -31 53 -36
334 -38 155 -1 284 2 287 5 12 12 -42 843 -63 974 l-5 32 -258 0 c-253 0 -259
0 -292 -23z"/>
<path d="M795 2930 c-3 -5 3 -10 14 -10 12 0 21 5 21 10 0 6 -6 10 -14 10 -8
0 -18 -4 -21 -10z"/>
<path d="M6480 1440 c0 -5 5 -10 10 -10 6 0 10 5 10 10 0 6 -4 10 -10 10 -5 0
-10 -4 -10 -10z"/>
</g>
</svg>
